<svg xmlns="http://www.w3.org/2000/svg" viewBox="0 0 512 512">
  <defs>
    <linearGradient id="bg" x1="0" y1="0" x2="1" y2="1"><stop stop-color="#082337"/><stop offset=".62" stop-color="#0a5360"/><stop offset="1" stop-color="#087e78"/></linearGradient>
    <linearGradient id="sun" x1="0" y1="0" x2="1" y2="1"><stop stop-color="#ffd77d"/><stop offset="1" stop-color="#ff9749"/></linearGradient>
    <filter id="shadow" x="-20%" y="-20%" width="140%" height="160%"><feDropShadow dx="0" dy="18" stdDeviation="16" flood-color="#001621" flood-opacity=".35"/></filter>
  </defs>
  <rect width="512" height="512" rx="116" fill="url(#bg)"/>
  <circle cx="390" cy="112" r="56" fill="url(#sun)"/>
  <path d="M69 315c76-118 163-118 239 0M330 315c43-65 91-65 134 0" fill="none" stroke="#bceee2" stroke-width="22" stroke-linecap="round" opacity=".92"/>
  <path d="M63 316h407" stroke="#bceee2" stroke-width="22" stroke-linecap="round" opacity=".92"/>
  <path d="M0 328h512v184H0z" fill="#071d2c"/>
  <path d="M24 418h464" stroke="#ffe6a0" stroke-width="12" stroke-dasharray="42 32" stroke-linecap="round" opacity=".9"/>
  <g filter="url(#shadow)" transform="translate(252 282)">
    <path d="M-118 72l20-65c7-23 26-37 51-40h91c23 0 42 14 51 36l25 69z" fill="url(#sun)"/>
    <path d="M-73 0h44v-21h-19c-11 0-19 6-25 21zm55 0h55L25-21H-18z" fill="#c6eeee"/>
    <rect x="-124" y="64" width="252" height="57" rx="24" fill="#ff934d"/>
    <circle cx="-75" cy="119" r="27" fill="#071d2c"/><circle cx="78" cy="119" r="27" fill="#071d2c"/><circle cx="-75" cy="119" r="11" fill="#bdd0d5"/><circle cx="78" cy="119" r="11" fill="#bdd0d5"/>
    <g transform="translate(-22 -78)"><path d="M-35 8h70l-7 66h-56z" fill="#ffd36c"/><path d="M-18 14c0-27 36-27 36 0" fill="none" stroke="#fff" stroke-width="9" stroke-linecap="round"/></g>
    <g transform="translate(48 -66)"><path d="M-30 8h60l-7 57h-46z" fill="#39c9b6"/><path d="M-15 14c0-23 30-23 30 0" fill="none" stroke="#fff" stroke-width="8" stroke-linecap="round"/></g>
  </g>
</svg>
